<svg width="36" height="37" viewBox="0 0 36 37" fill="none" xmlns="http://www.w3.org/2000/svg">
<circle cx="18.0565" cy="18.4917" r="15" transform="rotate(-12.199 18.0565 18.4917)" fill="#403D3A"/>
<path d="M23.3656 15.7135C23.2563 14.0139 21.8106 13.3999 19.9691 13.1798L20.043 10.8289L18.6128 10.7846L18.5403 13.0735C18.1644 13.061 17.7804 13.0569 17.3971 13.0526L17.4705 10.7487L16.0401 10.7036L15.966 13.0537C15.6561 13.05 15.3512 13.0468 15.0548 13.0369L15.0548 13.0295L13.0813 12.967L13.0335 14.495C13.0335 14.495 14.0911 14.5081 14.073 14.5268C14.6525 14.5454 14.8301 14.8876 14.8761 15.1802L14.7923 17.858C14.832 17.8592 14.8838 17.8628 14.9434 17.8722L14.792 17.8679L14.674 21.6193C14.6424 21.8004 14.5262 22.0878 14.1208 22.076C14.1392 22.0926 13.0811 22.0434 13.0811 22.0434L12.7431 23.7427L14.6056 23.8013C14.9517 23.8128 15.2924 23.8295 15.6264 23.842L15.5525 26.2192L16.982 26.2637L17.0558 23.9128C17.4481 23.9324 17.8279 23.9473 18.1987 23.9592L18.1244 26.3003L19.5547 26.3446L19.6296 23.9722C22.0398 23.9099 23.7421 23.3569 24.0222 21.1045C24.2484 19.2913 23.4183 18.4521 22.0631 18.0816C22.9065 17.6855 23.448 16.9576 23.3656 15.7135ZM21.2035 20.7339C21.1495 22.5107 18.113 22.2126 17.1431 22.1831L17.2431 19.0332C18.2134 19.0644 21.2626 18.8812 21.2035 20.7339ZM20.6781 16.269C20.6272 17.8856 18.0961 17.6165 17.289 17.5912L17.3786 14.7354C18.1857 14.7607 20.7312 14.5828 20.6781 16.269Z" fill="#DB953C"/>
</svg>
