<svg width="11" height="7" viewBox="0 0 11 7" fill="none" xmlns="http://www.w3.org/2000/svg">
<path d="M9.79631 1.86695L9.7962 1.86707L5.83131 5.83326L9.79631 1.86695ZM9.79631 1.86695C10.0284 1.63429 10.0282 1.25765 9.79645 1.02473L9.79631 1.0246L9.79631 1.86695ZM1.02431 1.02504L1.02445 1.0249C1.25695 0.792399 1.63391 0.792166 1.8662 1.02492L1.02431 1.02504ZM1.02431 1.02504C0.792312 1.25762 0.792312 1.6348 1.02431 1.86739L1.02443 1.86751M1.02431 1.02504L1.02443 1.86751M5.41053 4.57008L8.95474 1.0246C8.95476 1.02458 8.95478 1.02456 8.9548 1.02454L8.95485 1.02448L9.06094 1.13053L5.41053 4.57008ZM5.41053 4.57008L1.86632 1.02504L5.41053 4.57008ZM1.02443 1.86751L4.98944 5.83383L4.98958 5.83397M1.02443 1.86751L4.98958 5.83397M4.98958 5.83397C5.21984 6.06369 5.60114 6.06393 5.83118 5.83339L4.98958 5.83397Z" fill="#C78D4E" stroke="#E09D54" stroke-width="0.3"/>
</svg>
