<svg width="14" height="14" viewBox="0 0 14 14" fill="none" xmlns="http://www.w3.org/2000/svg">
<path d="M7.51649 4.87645L11.5562 0.835978C11.752 0.648275 12.0135 0.544477 12.2848 0.546835C12.5575 0.549204 12.8183 0.658572 13.0111 0.851383L13.3647 0.49783L13.0111 0.851384C13.2039 1.04419 13.3133 1.30502 13.3157 1.57769C13.318 1.84905 13.2142 2.11053 13.0265 2.30636L8.98678 6.34686L8.63329 6.70042L8.98681 7.05394L13.0299 11.097L13.0298 11.0971L13.0391 11.106C13.1398 11.2016 13.2203 11.3164 13.2759 11.4436C13.3315 11.5708 13.361 11.7078 13.3628 11.8466C13.3646 11.9854 13.3386 12.1231 13.2864 12.2517C13.2341 12.3803 13.1566 12.4971 13.0585 12.5953C12.9603 12.6934 12.8435 12.771 12.715 12.8233C12.5864 12.8756 12.4487 12.9017 12.3099 12.8999C12.1711 12.8982 12.034 12.8686 11.9068 12.8131C11.7796 12.7575 11.6648 12.6771 11.5692 12.5765L11.5693 12.5764L11.5603 12.5674L7.51646 8.52352L7.1629 8.16997L6.80935 8.52352L2.77048 12.5624C2.57433 12.7466 2.31432 12.8477 2.04509 12.8442C1.77391 12.8406 1.51484 12.7313 1.32311 12.5395L0.969498 12.893L1.32311 12.5395C1.13138 12.3477 1.02216 12.0886 1.01874 11.8175C1.01534 11.5482 1.11651 11.2882 1.30083 11.0921L5.339 7.05394L5.69252 6.70042L5.33903 6.34686L1.29594 2.30301L1.29606 2.30289L1.28668 2.29398C1.18603 2.19839 1.10554 2.08362 1.04994 1.95644C0.994349 1.82925 0.96478 1.69222 0.962978 1.55343C0.961177 1.41463 0.987179 1.27688 1.03945 1.14829C1.09173 1.01971 1.16922 0.902886 1.26735 0.804718C1.36548 0.70655 1.48228 0.629021 1.61084 0.576702C1.73941 0.524382 1.87715 0.49833 2.01595 0.500083C2.15474 0.501835 2.29178 0.531356 2.41899 0.586905C2.5462 0.642454 2.661 0.722907 2.75662 0.823522L2.7565 0.823633L2.76549 0.832625L6.80935 4.87648L7.16294 5.23007L7.51649 4.87645Z" fill="#9D9D9D" stroke="#0A1018"/>
</svg>
