<svg width="11" height="15" viewBox="0 0 11 15" fill="none" xmlns="http://www.w3.org/2000/svg">
<path d="M8.90534 14.067L1.4702 14.1967C0.78727 14.2086 0.221314 13.6626 0.209392 12.9791L0.108528 7.19622C0.0966058 6.51269 0.643178 5.94733 1.3261 5.93542L8.76125 5.80573C9.44417 5.79382 10.0101 6.33978 10.0221 7.02331L10.1229 12.8062C10.1348 13.4897 9.58826 14.0551 8.90534 14.067ZM1.34051 6.76154C1.11301 6.76551 0.930678 6.9538 0.934655 7.18181L1.03552 12.9647C1.0395 13.1927 1.22828 13.3745 1.45579 13.3706L8.89093 13.2409C9.11844 13.2369 9.30076 13.0486 9.29679 12.8206L9.19592 7.03772C9.19195 6.80971 9.00316 6.62789 8.77566 6.63186L1.34051 6.76154Z" fill="#F5CEA3"/>
<path d="M7.95013 6.64552C7.72212 6.6495 7.53384 6.46768 7.52987 6.23966L7.49384 4.17435C7.47001 2.80789 6.33869 1.71536 4.97224 1.73919C3.60578 1.76303 2.51325 2.89434 2.53708 4.2608L2.57311 6.32612C2.57708 6.55413 2.39526 6.74241 2.16725 6.74639C1.93924 6.75036 1.75096 6.56854 1.74698 6.34053L1.71096 4.27521C1.67917 2.45273 3.13535 0.944854 4.95783 0.913066C6.78031 0.881279 8.28818 2.33746 8.31997 4.15994L8.35599 6.22526C8.35997 6.45327 8.17814 6.64155 7.95013 6.64552Z" fill="#F5CEA3"/>
</svg>
