<svg width="11" height="12" viewBox="0 0 11 12" fill="none" xmlns="http://www.w3.org/2000/svg">
<path d="M4.26715 6.33194L4.26712 6.33196L4.26795 6.33303L4.26922 6.3348C4.37516 6.47782 4.43245 6.65105 4.4328 6.82921V10.58V10.5803H4.5328M4.26715 6.33194L6.98241 10.3618M4.26715 6.33194L4.26468 6.32849L4.26466 6.32851L0.998738 1.72781C0.998677 1.72773 0.998616 1.72764 0.998555 1.72756C0.883733 1.56766 0.867961 1.35687 0.957969 1.18174L4.26715 6.33194ZM4.5328 10.5803C4.53211 10.6915 4.57573 10.7981 4.65406 10.877C4.73238 10.9558 4.83887 11 4.94991 11C5.00642 11 5.06224 10.9887 5.11439 10.9671M4.5328 10.5803V6.82901V10.5803ZM5.11439 10.9671L5.15002 11.0605L5.1513 11.06C5.15176 11.0598 5.15222 11.0597 5.15268 11.0595L5.11439 10.9671ZM5.11439 10.9671L6.94979 10.2672M6.94979 10.2672L6.97896 10.3629C6.98012 10.3625 6.98127 10.3622 6.98241 10.3618M6.94979 10.2672C7.11427 10.217 7.22343 10.0619 7.22343 9.87499V6.82901M6.94979 10.2672L6.98542 10.3606L6.98241 10.3618M6.98241 10.3618L7.22343 6.82901M10.7981 1.18173C10.709 1.00847 10.5305 0.89967 10.3356 0.900001M10.7981 1.18173L10.3356 0.900001M10.7981 1.18173C10.7981 1.18173 10.7981 1.18174 10.7981 1.18174L10.7091 1.22744L10.7981 1.18173ZM10.3356 0.900001H10.3357V1L10.3355 0.900001C10.3356 0.900001 10.3356 0.900001 10.3356 0.900001ZM10.3356 0.900001H1.42029M10.3356 0.900001H1.42029M7.22343 6.82901C7.22373 6.62963 7.28798 6.4355 7.40656 6.27528L7.22343 6.82901ZM1.42029 0.900001C1.22552 0.89967 1.047 1.00849 0.957975 1.18173L1.42029 0.900001ZM4.83969 5.91596L1.78128 1.60763H9.97475L6.91623 5.91598C6.72152 6.18055 6.61624 6.5003 6.61561 6.82882V6.82901V9.74442L5.14043 10.3069L5.14043 6.82901L5.14043 6.82882C5.13979 6.5003 5.03451 6.18054 4.83969 5.91596Z" fill="#C78D4E" stroke="#C78D4E" stroke-width="0.2"/>
</svg>
